<mxfile host="app.diagrams.net" modified="2022-03-03T20:15:43.309Z" agent="5.0 (Macintosh; Intel Mac OS X 10_15_7) AppleWebKit/537.36 (KHTML, like Gecko) Chrome/98.0.4758.109 Safari/537.36" etag="oUS3TMMfvtT-q_nXkEXQ" version="16.6.5" type="github">
  <diagram id="YcXIR3bcMAZpG-3bY3nB" name="Page-1">
    <mxGraphModel dx="946" dy="498" grid="1" gridSize="10" guides="1" tooltips="1" connect="1" arrows="1" fold="1" page="1" pageScale="1" pageWidth="827" pageHeight="1169" math="0" shadow="0">
      <root>
        <mxCell id="0" />
        <mxCell id="1" parent="0" />
        <mxCell id="87Oj9tGkJAICAh6HIhUp-3" value="" style="edgeStyle=orthogonalEdgeStyle;rounded=0;orthogonalLoop=1;jettySize=auto;html=1;" edge="1" parent="1" source="87Oj9tGkJAICAh6HIhUp-1" target="87Oj9tGkJAICAh6HIhUp-2">
          <mxGeometry relative="1" as="geometry" />
        </mxCell>
        <mxCell id="87Oj9tGkJAICAh6HIhUp-1" value="Actor" style="shape=umlActor;verticalLabelPosition=bottom;verticalAlign=top;html=1;outlineConnect=0;" vertex="1" parent="1">
          <mxGeometry x="60" y="160" width="30" height="60" as="geometry" />
        </mxCell>
        <mxCell id="87Oj9tGkJAICAh6HIhUp-2" value="Actor" style="shape=umlActor;verticalLabelPosition=bottom;verticalAlign=top;html=1;outlineConnect=0;" vertex="1" parent="1">
          <mxGeometry x="60" y="300" width="30" height="60" as="geometry" />
        </mxCell>
      </root>
    </mxGraphModel>
  </diagram>
</mxfile>
